<svg xmlns="http://www.w3.org/2000/svg" viewBox="0 0 74.71 20.04"><defs><style>.cls-1,.cls-3{fill:none;stroke:#4f3e99;stroke-miterlimit:10;}.cls-2{fill:#4f3e99;}.cls-3{stroke-width:0.75px;}</style></defs><title>JourlineLogo</title><g id="Layer_2" data-name="Layer 2"><g id="Layer_1-2" data-name="Layer 1"><path class="cls-1" d="M.84,7.93V1.05A.55.55,0,0,1,1.38.5H13.82a.55.55,0,0,1,.55.55V19a.55.55,0,0,1-.55.55H1.38A.55.55,0,0,1,.84,19V12.05"/><path class="cls-2" d="M24.35,3.53v9.08a4.3,4.3,0,0,1-.75,2.65,2.66,2.66,0,0,1-2.27,1,2.31,2.31,0,0,1-1.35-.4,3.13,3.13,0,0,1-1-1.11l1.35-1.66,0,.08a.56.56,0,0,1,.05.08l.25.32a2.29,2.29,0,0,0,.27.27l.17.11a.39.39,0,0,0,.18,0,.48.48,0,0,0,.5-.31A2.12,2.12,0,0,0,22,13a2.35,2.35,0,0,0,0-.26V3.53Z"/><path class="cls-3" d="M29.07,8.51a3.91,3.91,0,0,1,2.62,1,3.35,3.35,0,0,1,1.12,2.69,3.32,3.32,0,0,1-1.12,2.67,4,4,0,0,1-2.62.94,3.93,3.93,0,0,1-2.61-.94,3.29,3.29,0,0,1-1.12-2.67,3.32,3.32,0,0,1,1.12-2.69,3.87,3.87,0,0,1,2.61-1Zm-1,2.56a1.68,1.68,0,0,0-.38,1.09A1.64,1.64,0,0,0,28,13.25a1.46,1.46,0,0,0,2.08,0,1.6,1.6,0,0,0,.37-1.09,1.67,1.67,0,0,0-.37-1.09,1.28,1.28,0,0,0-1.05-.46A1.31,1.31,0,0,0,28,11.07Z"/><path class="cls-3" d="M36,8.73v3.64a2.34,2.34,0,0,0,.21,1.07,1.15,1.15,0,0,0,1.78,0,2.3,2.3,0,0,0,.21-1.06V8.73h2.2v4.1a2.56,2.56,0,0,1-1,2.32,4.74,4.74,0,0,1-4.69,0,2.53,2.53,0,0,1-1-2.3V8.73Z"/><path class="cls-3" d="M44,9.85h0a2.13,2.13,0,0,1,.84-.91A2.42,2.42,0,0,1,46,8.65h.42V11l-.09,0-.09,0a1.21,1.21,0,0,0-.36-.1,2.38,2.38,0,0,0-.39,0,1.24,1.24,0,0,0-1.22.59,3.21,3.21,0,0,0-.3,1.47v2.73h-2.2V8.73H44Z"/><path class="cls-2" d="M49.65,13.55h2.84v2.26H47.28V3.53h2.37Z"/><path class="cls-3" d="M55.18,5.17a1.4,1.4,0,0,1,.36,1,1.36,1.36,0,0,1-.36,1,1.15,1.15,0,0,1-1.74,0,1.36,1.36,0,0,1-.36-1,1.4,1.4,0,0,1,.36-1,1.15,1.15,0,0,1,.87-.4A1.2,1.2,0,0,1,55.18,5.17Zm.23,10.37h-2.2V8.73h2.2Z"/><path class="cls-3" d="M59.06,9.61h0A2.26,2.26,0,0,1,60,8.76a2.42,2.42,0,0,1,1.11-.24,2,2,0,0,1,1.8.78,3.55,3.55,0,0,1,.54,2v4.19H61.2V11.82a2.46,2.46,0,0,0,0-.26A1.63,1.63,0,0,0,61,10.8a.79.79,0,0,0-.76-.36.93.93,0,0,0-.91.47A2.45,2.45,0,0,0,59.06,12v3.52h-2.2V8.73h2.2Z"/><path class="cls-3" d="M71.21,12.29v.25H66.58a1.62,1.62,0,0,0,.36,1.14,1.29,1.29,0,0,0,1,.39,1.17,1.17,0,0,0,.61-.15,1.09,1.09,0,0,0,.44-.48h2.12A2.61,2.61,0,0,1,70,15.21a3.75,3.75,0,0,1-2,.56,3.68,3.68,0,0,1-2.56-.93,3.42,3.42,0,0,1-1-2.68,3.61,3.61,0,0,1,1-2.67,3.31,3.31,0,0,1,2.47-1,3.13,3.13,0,0,1,2.5,1,4,4,0,0,1,.89,2.76Zm-2-1.14a1.23,1.23,0,0,0-.44-.77,1.22,1.22,0,0,0-.8-.29,1.36,1.36,0,0,0-.85.26,1.26,1.26,0,0,0-.46.8Z"/><path class="cls-2" d="M12.07,14.27l-1.26-1.21L9.55,14.27V.13h2.52Z"/><path class="cls-2" d="M2.42,7.93H0v4.12H2.42a.87.87,0,0,0,.87-.87V8.79A.87.87,0,0,0,2.42,7.93Zm.24,2.86a.55.55,0,0,1-.55.55H.63V8.64H2.11a.55.55,0,0,1,.55.55Z"/><circle class="cls-2" cx="1.64" cy="10.02" r="0.72"/><rect class="cls-2" x="16.66" y="17.83" width="58.05" height="2.17" rx="0.69"/></g></g></svg>